solid OBJECT
  facet normal -0.085451929773703972 -0.15826744730395501 0.98369171127027388
    outer loop
      vertex 8.1730785369873047 0.71792757511138916 9.9568061828613281
      vertex 8.0522012710571289 0.37645643949508667 9.8913660049438477
      vertex 10 3.0616169991140216e-16 10
    endloop
  endfacet
  facet normal -0.28707567603521589 -0.060622409680887404 0.95598769849481136
    outer loop
      vertex 6.3292670249938965 1.4493422508239746 9.4420175552368164
      vertex 6.1032161712646484 0.75850611925125122 9.3303279876708984
      vertex 8.0522012710571289 0.37645643949508667 9.8913660049438477
    endloop
  endfacet
  facet normal -0.29649468030511122 -0.077465486310518292 0.95188759997252015
    outer loop
      vertex 6.3292670249938965 1.4493422508239746 9.4420175552368164
      vertex 8.0522012710571289 0.37645643949508667 9.8913660049438477
      vertex 8.1730785369873047 0.71792757511138916 9.9568061828613281
    endloop
  endfacet
  facet normal -0.47397264630267538 0.030639692475228516 0.88000632941011414
    outer loop
      vertex 4.7303872108459473 2.0901527404785156 8.5445556640625
      vertex 4.4224853515625 1.0931065082550049 8.4134340286254883
      vertex 6.1032161712646484 0.75850611925125122 9.3303279876708984
    endloop
  endfacet
  facet normal -0.48420717420448367 0.017009458853056002 0.87478802618602136
    outer loop
      vertex 4.7303872108459473 2.0901527404785156 8.5445556640625
      vertex 6.1032161712646484 0.75850611925125122 9.3303279876708984
      vertex 6.3292670249938965 1.4493422508239746 9.4420175552368164
    endloop
  endfacet
  facet normal -0.63464844488114946 0.11184621106232003 0.7646644862166293
    outer loop
      vertex 3.2981250286102295 2.67132568359375 7.2494053840637207
      vertex 2.9202620983123779 1.3977646827697754 7.1220722198486328
      vertex 4.4224853515625 1.0931065082550049 8.4134340286254883
    endloop
  endfacet
  facet normal -0.64487300643692635 0.099489233026891957 0.75778671015050192
    outer loop
      vertex 3.2981250286102295 2.67132568359375 7.2494053840637207
      vertex 4.4224853515625 1.0931065082550049 8.4134340286254883
      vertex 4.7303872108459473 2.0901527404785156 8.5445556640625
    endloop
  endfacet
  facet normal -0.76783753613654615 0.18103935326308726 0.61453256274166734
    outer loop
      vertex 2.1335136890411377 3.1522388458251953 5.6221942901611328
      vertex 1.696926474571228 1.6524076461791992 5.5185389518737793
      vertex 2.9202620983123779 1.3977646827697754 7.1220722198486328
    endloop
  endfacet
  facet normal -0.7769115979793294 0.16989353891385944 0.6062545293525895
    outer loop
      vertex 2.1335136890411377 3.1522388458251953 5.6221942901611328
      vertex 2.9202620983123779 1.3977646827697754 7.1220722198486328
      vertex 3.2981250286102295 2.67132568359375 7.2494053840637207
    endloop
  endfacet
  facet normal -0.86365639600653432 0.23235453466412573 0.44733544444635931
    outer loop
      vertex 1.3547817468643188 3.4829216003417969 3.9071671962738037
      vertex 0.87368673086166382 1.8309193849563599 3.8364136219024658
      vertex 1.696926474571228 1.6524076461791992 5.5185389518737793
    endloop
  endfacet
  facet normal -0.87065861896039354 0.22314513000403507 0.43836037707058173
    outer loop
      vertex 1.3547817468643188 3.4829216003417969 3.9071671962738037
      vertex 1.696926474571228 1.6524076461791992 5.5185389518737793
      vertex 2.1335136890411377 3.1522388458251953 5.6221942901611328
    endloop
  endfacet
  facet normal -0.92384739734207022 0.26768024153512049 0.27359326511444415
    outer loop
      vertex 0.88489425182342529 3.6943943500518799 2.0510575771331787
      vertex 0.3691670298576355 1.9496747255325317 2.016603946685791
      vertex 0.87368673086166382 1.8309193849563599 3.8364136219024658
    endloop
  endfacet
  facet normal -0.92885952142441308 0.25916610239665711 0.26467512317506436
    outer loop
      vertex 0.88489425182342529 3.6943943500518799 2.0510575771331787
      vertex 0.87368673086166382 1.8309193849563599 3.8364136219024658
      vertex 1.3547817468643188 3.4829216003417969 3.9071671962738037
    endloop
  endfacet
  facet normal -0.060155219122010717 -0.093285118463653741 0.99382052518832842
    outer loop
      vertex 8.3648624420166016 1.0557243824005127 10.0001220703125
      vertex 8.1730785369873047 0.71792757511138916 9.9568061828613281
      vertex 10 3.0616169991140216e-16 10
    endloop
  endfacet
  facet normal -0.25577386063424401 0.035187254174955107 0.96609605596953008
    outer loop
      vertex 6.7039527893066406 2.1331796646118164 9.5163087844848633
      vertex 6.3292670249938965 1.4493422508239746 9.4420175552368164
      vertex 8.1730785369873047 0.71792757511138916 9.9568061828613281
    endloop
  endfacet
  facet normal -0.26388274049445798 0.026179372584946164 0.96419942943365888
    outer loop
      vertex 6.7039527893066406 2.1331796646118164 9.5163087844848633
      vertex 8.1730785369873047 0.71792757511138916 9.9568061828613281
      vertex 8.3648624420166016 1.0557243824005127 10.0001220703125
    endloop
  endfacet
  facet normal -0.43590899479807194 0.15418068524691314 0.88668577554335826
    outer loop
      vertex 5.2571816444396973 3.0765895843505859 8.6320104598999023
      vertex 4.7303872108459473 2.0901527404785156 8.5445556640625
      vertex 6.3292670249938965 1.4493422508239746 9.4420175552368164
    endloop
  endfacet
  facet normal -0.44411450445392237 0.14732549090304231 0.88377457910025037
    outer loop
      vertex 5.2571816444396973 3.0765895843505859 8.6320104598999023
      vertex 6.3292670249938965 1.4493422508239746 9.4420175552368164
      vertex 6.7039527893066406 2.1331796646118164 9.5163087844848633
    endloop
  endfacet
  facet normal -0.58870910438580371 0.2570581065616821 0.76638288098325091
    outer loop
      vertex 3.9579699039459229 3.9290757179260254 7.334404468536377
      vertex 3.2981250286102295 2.67132568359375 7.2494053840637207
      vertex 4.7303872108459473 2.0901527404785156 8.5445556640625
    endloop
  endfacet
  facet normal -0.59660610866881458 0.25102996778221803 0.7622631477215156
    outer loop
      vertex 3.9579699039459229 3.9290757179260254 7.334404468536377
      vertex 4.7303872108459473 2.0901527404785156 8.5445556640625
      vertex 5.2571816444396973 3.0765895843505859 8.6320104598999023
    endloop
  endfacet
  facet normal -0.71329305523235054 0.34220092375486583 0.61164658516059378
    outer loop
      vertex 2.9011130332946777 4.6287202835083008 5.6913027763366699
      vertex 2.1335136890411377 3.1522388458251953 5.6221942901611328
      vertex 3.2981250286102295 2.67132568359375 7.2494053840637207
    endloop
  endfacet
  facet normal -0.7201319838992597 0.3368032161976256 0.60660820908082991
    outer loop
      vertex 2.9011130332946777 4.6287202835083008 5.6913027763366699
      vertex 3.2981250286102295 2.67132568359375 7.2494053840637207
      vertex 3.9579699039459229 3.9290757179260254 7.334404468536377
    endloop
  endfacet
  facet normal -0.80139502121967321 0.40336470909233912 0.44165929337349208
    outer loop
      vertex 2.1958174705505371 5.1023683547973633 3.9542038440704346
      vertex 1.3547817468643188 3.4829216003417969 3.9071671962738037
      vertex 2.1335136890411377 3.1522388458251953 5.6221942901611328
    endloop
  endfacet
  facet normal -0.8065724798449635 0.39890498373828692 0.4362518179967883
    outer loop
      vertex 2.1958174705505371 5.1023683547973633 3.9542038440704346
      vertex 2.1335136890411377 3.1522388458251953 5.6221942901611328
      vertex 2.9011130332946777 4.6287202835083008 5.6913027763366699
    endloop
  endfacet
  facet normal -0.85580091136355341 0.44300025145666194 0.26712464753115855
    outer loop
      vertex 1.7725452184677124 5.3954348564147949 2.0738601684570313
      vertex 0.88489425182342529 3.6943943500518799 2.0510575771331787
      vertex 1.3547817468643188 3.4829216003417969 3.9071671962738037
    endloop
  endfacet
  facet normal -0.85957545318327833 0.43880140130452011 0.26188426928311531
    outer loop
      vertex 1.7725452184677124 5.3954348564147949 2.0738601684570313
      vertex 1.3547817468643188 3.4829216003417969 3.9071671962738037
      vertex 2.1958174705505371 5.1023683547973633 3.9542038440704346
    endloop
  endfacet
  facet normal -0.021126979568180042 -0.032837637906031565 0.9992373793404038
    outer loop
      vertex 8.6210184097290039 1.3643221855163574 10.015679359436035
      vertex 8.3648624420166016 1.0557243824005127 10.0001220703125
      vertex 10 3.0616169991140216e-16 10
    endloop
  endfacet
  facet normal -0.20229311954199866 0.12435282844211247 0.97139789367921392
    outer loop
      vertex 7.2150015830993652 2.7555568218231201 9.5430612564086914
      vertex 6.7039527893066406 2.1331796646118164 9.5163087844848633
      vertex 8.3648624420166016 1.0557243824005127 10.0001220703125
    endloop
  endfacet
  facet normal -0.2057933034328574 0.12187193943544722 0.97097700623672578
    outer loop
      vertex 7.2150015830993652 2.7555568218231201 9.5430612564086914
      vertex 8.3648624420166016 1.0557243824005127 10.0001220703125
      vertex 8.6210184097290039 1.3643221855163574 10.015679359436035
    endloop
  endfacet
  facet normal -0.36854887165765732 0.26891628373185456 0.88986277680534343
    outer loop
      vertex 5.9863104820251465 3.971487283706665 8.6635513305664062
      vertex 5.2571816444396973 3.0765895843505859 8.6320104598999023
      vertex 6.7039527893066406 2.1331796646118164 9.5163087844848633
    endloop
  endfacet
  facet normal -0.37192768741510518 0.26718661962153178 0.88897756193802246
    outer loop
      vertex 5.9863104820251465 3.971487283706665 8.6635513305664062
      vertex 6.7039527893066406 2.1331796646118164 9.5163087844848633
      vertex 7.2150015830993652 2.7555568218231201 9.5430612564086914
    endloop
  endfacet
  facet normal -0.5087676236021379 0.3916157138491636 0.76667635795076094
    outer loop
      vertex 4.879819393157959 5.0666565895080566 7.3650727272033691
      vertex 3.9579699039459229 3.9290757179260254 7.334404468536377
      vertex 5.2571816444396973 3.0765895843505859 8.6320104598999023
    endloop
  endfacet
  facet normal -0.51194792298196912 0.39014232952787448 0.76530927530313597
    outer loop
      vertex 4.879819393157959 5.0666565895080566 7.3650727272033691
      vertex 5.2571816444396973 3.0765895843505859 8.6320104598999023
      vertex 5.9863104820251465 3.971487283706665 8.6635513305664062
    endloop
  endfacet
  facet normal -0.6222072859784491 0.49136940009165347 0.60943761446837286
    outer loop
      vertex 3.977114200592041 5.9603242874145508 5.7162213325500488
      vertex 2.9011130332946777 4.6287202835083008 5.6913027763366699
      vertex 3.9579699039459229 3.9290757179260254 7.334404468536377
    endloop
  endfacet
  facet normal -0.62492820955237716 0.4900326832398178 0.60772749013225047
    outer loop
      vertex 3.977114200592041 5.9603242874145508 5.7162213325500488
      vertex 3.9579699039459229 3.9290757179260254 7.334404468536377
      vertex 4.879819393157959 5.0666565895080566 7.3650727272033691
    endloop
  endfacet
  facet normal -0.70180824965504163 0.56171687295757633 0.43810881679200309
    outer loop
      vertex 3.372408390045166 6.5591921806335449 3.9711372852325439
      vertex 2.1958174705505371 5.1023683547973633 3.9542038440704346
      vertex 2.9011130332946777 4.6287202835083008 5.6913027763366699
    endloop
  endfacet
  facet normal -0.70385290384120358 0.56058344709459929 0.43627661935730871
    outer loop
      vertex 3.372408390045166 6.5591921806335449 3.9711372852325439
      vertex 2.9011130332946777 4.6287202835083008 5.6913027763366699
      vertex 3.977114200592041 5.9603242874145508 5.7162213325500488
    endloop
  endfacet
  facet normal -0.75082236723057461 0.60570408290216837 0.26341666010698583
    outer loop
      vertex 3.0066709518432617 6.9216785430908203 2.0820493698120117
      vertex 1.7725452184677124 5.3954348564147949 2.0738601684570313
      vertex 2.1958174705505371 5.1023683547973633 3.9542038440704346
    endloop
  endfacet
  facet normal -0.75233968538158158 0.60457902836412247 0.26166619243271799
    outer loop
      vertex 3.0066709518432617 6.9216785430908203 2.0820493698120117
      vertex 2.1958174705505371 5.1023683547973633 3.9542038440704346
      vertex 3.372408390045166 6.5591921806335449 3.9711372852325439
    endloop
  endfacet
  facet normal 0.029492850647952994 0.018324258989842357 0.9993970148510205
    outer loop
      vertex 8.9218244552612305 1.6194360256195068 10.002124786376953
      vertex 8.6210184097290039 1.3643221855163574 10.015679359436035
      vertex 10 3.0616169991140216e-16 10
    endloop
  endfacet
  facet normal -0.12972957447736477 0.19888690762958103 0.97139808290909457
    outer loop
      vertex 7.8214235305786133 3.2649705410003662 9.519749641418457
      vertex 7.2150015830993652 2.7555568218231201 9.5430612564086914
      vertex 8.6210184097290039 1.3643221855163574 10.015679359436035
    endloop
  endfacet
  facet normal -0.12619279690230764 0.20041445729067522 0.97155001071424885
    outer loop
      vertex 7.8214235305786133 3.2649705410003662 9.519749641418457
      vertex 8.6210184097290039 1.3643221855163574 10.015679359436035
      vertex 8.9218244552612305 1.6194360256195068 10.002124786376953
    endloop
  endfacet
  facet normal -0.27599349609745261 0.36442804454498812 0.88939293366937755
    outer loop
      vertex 6.8580045700073242 4.6987276077270508 8.6360664367675781
      vertex 5.9863104820251465 3.971487283706665 8.6635513305664062
      vertex 7.2150015830993652 2.7555568218231201 9.5430612564086914
    endloop
  endfacet
  facet normal -0.27268188711039959 0.36533873521465732 0.89004055918461711
    outer loop
      vertex 6.8580045700073242 4.6987276077270508 8.6360664367675781
      vertex 7.2150015830993652 2.7555568218231201 9.5430612564086914
      vertex 7.8214235305786133 3.2649705410003662 9.519749641418457
    endloop
  endfacet
  facet normal -0.39986015859115492 0.503829674081683 0.76568107792095885
    outer loop
      vertex 5.9876441955566406 5.9864873886108398 7.3383474349975586
      vertex 4.879819393157959 5.0666565895080566 7.3650727272033691
      vertex 5.9863104820251465 3.971487283706665 8.6635513305664062
    endloop
  endfacet
  facet normal -0.3967727895183733 0.50456494103488636 0.76680217382077775
    outer loop
      vertex 5.9876441955566406 5.9864873886108398 7.3383474349975586
      vertex 5.9863104820251465 3.971487283706665 8.6635513305664062
      vertex 6.8580045700073242 4.6987276077270508 8.6360664367675781
    endloop
  endfacet
  facet normal -0.50034134135774633 0.61641791557561398 0.60801932163850381
    outer loop
      vertex 5.2736735343933105 7.034149169921875 5.6945071220397949
      vertex 3.977114200592041 5.9603242874145508 5.7162213325500488
      vertex 4.879819393157959 5.0666565895080566 7.3650727272033691
    endloop
  endfacet
  facet normal -0.49769632854950974 0.61712294048705496 0.60947324869345099
    outer loop
      vertex 5.2736735343933105 7.034149169921875 5.6945071220397949
      vertex 4.879819393157959 5.0666565895080566 7.3650727272033691
      vertex 5.9876441955566406 5.9864873886108398 7.3383474349975586
    endloop
  endfacet
  facet normal -0.57103525421165013 0.69527539137240846 0.43647550744501162
    outer loop
      vertex 4.7907557487487793 7.7333550453186035 3.9563822746276855
      vertex 3.372408390045166 6.5591921806335449 3.9711372852325439
      vertex 3.977114200592041 5.9603242874145508 5.7162213325500488
    endloop
  endfacet
  facet normal -0.56903492587813143 0.69592307738136683 0.43805287751471012
    outer loop
      vertex 4.7907557487487793 7.7333550453186035 3.9563822746276855
      vertex 3.977114200592041 5.9603242874145508 5.7162213325500488
      vertex 5.2736735343933105 7.034149169921875 5.6945071220397949
    endloop
  endfacet
  facet normal -0.6150793812393105 0.74373478144261462 0.26179367762948991
    outer loop
      vertex 4.492523193359375 8.1530113220214844 2.0749142169952393
      vertex 3.0066709518432617 6.9216785430908203 2.0820493698120117
      vertex 3.372408390045166 6.5591921806335449 3.9711372852325439
    endloop
  endfacet
  facet normal -0.61355426664465296 0.74446072530281493 0.26330474808432325
    outer loop
      vertex 4.492523193359375 8.1530113220214844 2.0749142169952393
      vertex 3.372408390045166 6.5591921806335449 3.9711372852325439
      vertex 4.7907557487487793 7.7333550453186035 3.9563822746276855
    endloop
  endfacet
  facet normal 0.089305142274189037 0.058152302845436918 0.99430523544692229
    outer loop
      vertex 9.2628870010375977 1.8180762529373169 9.959874153137207
      vertex 8.9218244552612305 1.6194360256195068 10.002124786376953
      vertex 10 3.0616169991140216e-16 10
    endloop
  endfacet
  facet normal -0.04216703250045873 0.2549845837139636 0.96602526024857238
    outer loop
      vertex 8.5118064880371094 3.6537356376647949 9.4472694396972656
      vertex 7.8214235305786133 3.2649705410003662 9.519749641418457
      vertex 8.9218244552612305 1.6194360256195068 10.002124786376953
    endloop
  endfacet
  facet normal -0.030231287981990106 0.25734176246616158 0.96584744474360951
    outer loop
      vertex 8.5118064880371094 3.6537356376647949 9.4472694396972656
      vertex 8.9218244552612305 1.6194360256195068 10.002124786376953
      vertex 9.2628870010375977 1.8180762529373169 9.959874153137207
    endloop
  endfacet
  facet normal -0.16356866930699535 0.43563540020732722 0.88513676260075247
    outer loop
      vertex 7.8537693023681641 5.2459945678710937 8.5507316589355469
      vertex 6.8580045700073242 4.6987276077270508 8.6360664367675781
      vertex 7.8214235305786133 3.2649705410003662 9.519749641418457
    endloop
  endfacet
  facet normal -0.15256703280403933 0.43626447704547561 0.88679005777557574
    outer loop
      vertex 7.8537693023681641 5.2459945678710937 8.5507316589355469
      vertex 7.8214235305786133 3.2649705410003662 9.519749641418457
      vertex 8.5118064880371094 3.6537356376647949 9.4472694396972656
    endloop
  endfacet
  facet normal -0.26790725241451818 0.58802049325661676 0.76318910082229874
    outer loop
      vertex 7.2571005821228027 6.6725115776062012 7.255406379699707
      vertex 5.9876441955566406 5.9864873886108398 7.3383474349975586
      vertex 6.8580045700073242 4.6987276077270508 8.6360664367675781
    endloop
  endfacet
  facet normal -0.25762343407616822 0.58827535447574852 0.76652610753400596
    outer loop
      vertex 7.2571005821228027 6.6725115776062012 7.255406379699707
      vertex 6.8580045700073242 4.6987276077270508 8.6360664367675781
      vertex 7.8537693023681641 5.2459945678710937 8.5507316589355469
    endloop
  endfacet
  facet normal -0.35373792520436703 0.71153229752812519 0.60711717966670764
    outer loop
      vertex 6.7636189460754395 7.8324112892150879 5.6270751953125
      vertex 5.2736735343933105 7.034149169921875 5.6945071220397949
      vertex 5.9876441955566406 5.9864873886108398 7.3383474349975586
    endloop
  endfacet
  facet normal -0.34481012066887406 0.71200794819098245 0.61167856133526843
    outer loop
      vertex 6.7636189460754395 7.8324112892150879 5.6270751953125
      vertex 5.9876441955566406 5.9864873886108398 7.3383474349975586
      vertex 7.2571005821228027 6.6725115776062012 7.255406379699707
    endloop
  endfacet
  facet normal -0.41499716470444503 0.79830791500394405 0.4364422368760012
    outer loop
      vertex 6.4246282577514648 8.6078052520751953 3.9104928970336914
      vertex 4.7907557487487793 7.7333550453186035 3.9563822746276855
      vertex 5.2736735343933105 7.034149169921875 5.6945071220397949
    endloop
  endfacet
  facet normal -0.40812196179300686 0.7990519965546975 0.44153411091803452
    outer loop
      vertex 6.4246282577514648 8.6078052520751953 3.9104928970336914
      vertex 5.2736735343933105 7.034149169921875 5.6945071220397949
      vertex 6.7636189460754395 7.8324112892150879 5.6270751953125
    endloop
  endfacet
  facet normal -0.45433819378662854 0.85145102401260953 0.26193121115014611
    outer loop
      vertex 6.2082881927490234 9.0753936767578125 2.0526723861694336
      vertex 4.492523193359375 8.1530113220214844 2.0749142169952393
      vertex 4.7907557487487793 7.7333550453186035 3.9563822746276855
    endloop
  endfacet
  facet normal -0.4489131527948475 0.85278170788194929 0.26690886075538189
    outer loop
      vertex 6.2082881927490234 9.0753936767578125 2.0526723861694336
      vertex 4.7907557487487793 7.7333550453186035 3.9563822746276855
      vertex 6.4246282577514648 8.6078052520751953 3.9104928970336914
    endloop
  endfacet
  facet normal 0.15698546122393067 0.085362778019795041 0.98390485367897906
    outer loop
      vertex 9.6309118270874023 1.9496747255325317 9.8897371292114258
      vertex 9.2628870010375977 1.8180762529373169 9.959874153137207
      vertex 10 3.0616169991140216e-16 10
    endloop
  endfacet
  facet normal 0.057521537187097016 0.29027696645972967 0.95521230912429644
    outer loop
      vertex 9.256378173828125 3.9001319408416748 9.3275556564331055
      vertex 8.5118064880371094 3.6537356376647949 9.4472694396972656
      vertex 9.2628870010375977 1.8180762529373169 9.959874153137207
    endloop
  endfacet
  facet normal 0.078109760863541586 0.28992920410800455 0.95385529398496249
    outer loop
      vertex 9.256378173828125 3.9001319408416748 9.3275556564331055
      vertex 9.2628870010375977 1.8180762529373169 9.959874153137207
      vertex 9.6309118270874023 1.9496747255325317 9.8897371292114258
    endloop
  endfacet
  facet normal -0.035120211517065826 0.47926976801620502 0.87696468583899634
    outer loop
      vertex 8.9283657073974609 5.5819110870361328 8.4101848602294922
      vertex 7.8537693023681641 5.2459945678710937 8.5507316589355469
      vertex 8.5118064880371094 3.6537356376647949 9.4472694396972656
    endloop
  endfacet
  facet normal -0.01629219564760773 0.47635253656306675 0.87910342125992891
    outer loop
      vertex 8.9283657073974609 5.5819110870361328 8.4101848602294922
      vertex 8.5118064880371094 3.6537356376647949 9.4472694396972656
      vertex 9.256378173828125 3.9001319408416748 9.3275556564331055
    endloop
  endfacet
  facet normal -0.11696058705146707 0.64037304253683369 0.75910644014439432
    outer loop
      vertex 8.6296796798706055 7.0849995613098145 7.1189188957214355
      vertex 7.2571005821228027 6.6725115776062012 7.255406379699707
      vertex 7.8537693023681641 5.2459945678710937 8.5507316589355469
    endloop
  endfacet
  facet normal -0.099147468709453193 0.63701600688292082 0.76444776566057582
    outer loop
      vertex 8.6296796798706055 7.0849995613098145 7.1189188957214355
      vertex 7.8537693023681641 5.2459945678710937 8.5507316589355469
      vertex 8.9283657073974609 5.5819110870361328 8.4101848602294922
    endloop
  endfacet
  facet normal -0.18617165718552986 0.77271131332702259 0.60684210493111101
    outer loop
      vertex 8.379969596862793 8.3090991973876953 5.5159697532653809
      vertex 6.7636189460754395 7.8324112892150879 5.6270751953125
      vertex 7.2571005821228027 6.6725115776062012 7.255406379699707
    endloop
  endfacet
  facet normal -0.17032873840016019 0.77016887547405988 0.61467717065629834
    outer loop
      vertex 8.379969596862793 8.3090991973876953 5.5159697532653809
      vertex 7.2571005821228027 6.6725115776062012 7.255406379699707
      vertex 8.6296796798706055 7.0849995613098145 7.1189188957214355
    endloop
  endfacet
  facet normal -0.23708476816859597 0.86693573359873333 0.43842131165360698
    outer loop
      vertex 8.2048377990722656 9.1329984664916992 3.8346567153930664
      vertex 6.4246282577514648 8.6078052520751953 3.9104928970336914
      vertex 6.7636189460754395 7.8324112892150879 5.6270751953125
    endloop
  endfacet
  facet normal -0.22451720972025943 0.86560890520948408 0.44756367788446322
    outer loop
      vertex 8.2048377990722656 9.1329984664916992 3.8346567153930664
      vertex 6.7636189460754395 7.8324112892150879 5.6270751953125
      vertex 8.379969596862793 8.3090991973876953 5.5159697532653809
    endloop
  endfacet
  facet normal -0.27178045774277304 0.92528845101731116 0.26453102880969126
    outer loop
      vertex 8.0882244110107422 9.6381349563598633 2.0157463550567627
      vertex 6.2082881927490234 9.0753936767578125 2.0526723861694336
      vertex 6.4246282577514648 8.6078052520751953 3.9104928970336914
    endloop
  endfacet
  facet normal -0.26139888092007268 0.92558153923936981 0.27380547706905478
    outer loop
      vertex 8.0882244110107422 9.6381349563598633 2.0157463550567627
      vertex 6.4246282577514648 8.6078052520751953 3.9104928970336914
      vertex 8.2048377990722656 9.1329984664916992 3.8346567153930664
    endloop
  endfacet
  facet normal 0.19619809721610076 0.13341144973598687 0.97144618570877295
    outer loop
      vertex 10 0.89854437112808228 9.9595489501953125
      vertex 10 1.81963050365448 9.8330535888671875
      vertex 9.6309118270874023 1.9496747255325317 9.8897371292114258
    endloop
  endfacet
  facet normal 0.22426404093163441 0.22299411859699966 0.94867236863743509
    outer loop
      vertex 10 1.81963050365448 9.8330535888671875
      vertex 10 2.751582145690918 9.6139898300170898
      vertex 9.6309118270874023 1.9496747255325317 9.8897371292114258
    endloop
  endfacet
  facet normal 0.1315393063250552 0.31921679298301081 0.93850841763362192
    outer loop
      vertex 10 2.751582145690918 9.6139898300170898
      vertex 10 3.6809470653533936 9.2978830337524414
      vertex 9.256378173828125 3.9001319408416748 9.3275556564331055
    endloop
  endfacet
  facet normal 0.15645892316149801 0.40911343257761218 0.89896985747449165
    outer loop
      vertex 10 3.6809470653533936 9.2978830337524414
      vertex 10 4.5929460525512695 8.8828401565551758
      vertex 9.256378173828125 3.9001319408416748 9.3275556564331055
    endloop
  endfacet
  facet normal 0.083767320470568118 0.50213428374524327 0.86072306644404084
    outer loop
      vertex 10 4.5929460525512695 8.8828401565551758
      vertex 10 5.4720973968505859 8.3699550628662109
      vertex 8.9283657073974609 5.5819110870361328 8.4101848602294922
    endloop
  endfacet
  facet normal 0.090363363576791284 0.58712231024827677 0.8044388449918457
    outer loop
      vertex 10 5.4720973968505859 8.3699550628662109
      vertex 10 6.3029813766479492 7.7635316848754883
      vertex 8.9283657073974609 5.5819110870361328 8.4101848602294922
    endloop
  endfacet
  facet normal 0.03272575827577915 0.66923948800353028 0.74232575897785469
    outer loop
      vertex 10 6.3029813766479492 7.7635316848754883
      vertex 10 7.0710678100585937 7.0710678100585937
      vertex 8.6296796798706055 7.0849995613098145 7.1189188957214355
    endloop
  endfacet
  facet normal 0.030918444666236833 0.74236849654267867 0.66927801780753537
    outer loop
      vertex 10 7.0710678100585937 7.0710678100585937
      vertex 10 7.7635316848754883 6.3029813766479492
      vertex 8.6296796798706055 7.0849995613098145 7.1189188957214355
    endloop
  endfacet
  facet normal -0.014375819964879816 0.80765996426123332 0.58947325463491596
    outer loop
      vertex 10 7.7635316848754883 6.3029813766479492
      vertex 10 8.3699550628662109 5.4720973968505859
      vertex 8.379969596862793 8.3090991973876953 5.5159697532653809
    endloop
  endfacet
  facet normal -0.018797115487643061 0.86360627374726173 0.50381630818554679
    outer loop
      vertex 10 8.3699550628662109 5.4720973968505859
      vertex 10 8.8828401565551758 4.5929460525512695
      vertex 8.379969596862793 8.3090991973876953 5.5159697532653809
    endloop
  endfacet
  facet normal -0.048076875429126309 0.90912670366204906 0.41373572572059703
    outer loop
      vertex 10 8.8828401565551758 4.5929460525512695
      vertex 10 9.2978830337524414 3.6809470653533936
      vertex 8.2048377990722656 9.1329984664916992 3.8346567153930664
    endloop
  endfacet
  facet normal -0.059280254214287537 0.94506968975717742 0.3214484919276524
    outer loop
      vertex 10 9.2978830337524414 3.6809470653533936
      vertex 10 9.6139898300170898 2.751582145690918
      vertex 8.2048377990722656 9.1329984664916992 3.8346567153930664
    endloop
  endfacet
  facet normal -0.075561782858818469 0.97068511423306936 0.22816841581938926
    outer loop
      vertex 10 9.6139898300170898 2.751582145690918
      vertex 10 9.8330535888671875 1.81963050365448
      vertex 8.0882244110107422 9.6381349563598633 2.0157463550567627
    endloop
  endfacet
  facet normal -0.086723778896806561 0.98696860661942865 0.13554318766194501
    outer loop
      vertex 10 9.8330535888671875 1.81963050365448
      vertex 10 9.9595489501953125 0.89854437112808228
      vertex 8.0882244110107422 9.6381349563598633 2.0157463550567627
    endloop
  endfacet
  facet normal -0.098725778323999577 0.99410782857731173 0.044753165872627218
    outer loop
      vertex 10 9.9595489501953125 0.89854437112808228
      vertex 10 10 0
      vertex 8.0331792831420898 9.8046731948852539 4.0189013429697178e-17
    endloop
  endfacet
  facet normal -0.29285661981876099 0.95295244738232454 0.078208907781453396
    outer loop
      vertex 8.0331792831420898 9.8046731948852539 4.0189013429697178e-17
      vertex 6.1211543083190918 9.2170791625976563 8.2491519646581645e-17
      vertex 6.2082881927490234 9.0753936767578125 2.0526723861694336
    endloop
  endfacet
  facet normal -0.47542690620640121 0.87644104805750711 0.076291193036078994
    outer loop
      vertex 6.1211543083190918 9.2170791625976563 8.2491519646581645e-17
      vertex 4.3889217376708984 8.2774267196655273 1.2412741093397698e-16
      vertex 4.492523193359375 8.1530113220214844 2.0749142169952393
    endloop
  endfacet
  facet normal -0.63699787551680664 0.76693031125497546 0.077792057855679497
    outer loop
      vertex 4.3889217376708984 8.2774267196655273 1.2412741093397698e-16
      vertex 2.8929452896118164 7.0348968505859375 1.6358873041775411e-16
      vertex 4.492523193359375 8.1530113220214844 2.0749142169952393
    endloop
  endfacet
  facet normal -0.77453013262652171 0.62789998719165219 0.076450505153764323
    outer loop
      vertex 2.8929452896118164 7.0348968505859375 1.6358873041775411e-16
      vertex 1.6471688747406006 5.4982008934020996 2.0053097391639694e-16
      vertex 3.0066709518432617 6.9216785430908203 2.0820493698120117
    endloop
  endfacet
  facet normal -0.88213489346857132 0.46476564614991167 0.076360486405256042
    outer loop
      vertex 1.6471688747406006 5.4982008934020996 2.0053097391639694e-16
      vertex 0.74206250905990601 3.7802901268005371 2.322603516645102e-16
      vertex 1.7725452184677124 5.3954348564147949 2.0738601684570313
    endloop
  endfacet
  facet normal -0.95327610322611134 0.28945582825566601 0.086486961484762981
    outer loop
      vertex 0.74206250905990601 3.7802901268005371 2.322603516645102e-16
      vertex 0.20317734777927399 2.0055587291717529 2.5726412899274671e-16
      vertex 0.3691670298576355 1.9496747255325317 2.016603946685791
    endloop
  endfacet
  facet normal -0.99008649507301583 0.10030279603135228 0.098326402264721516
    outer loop
      vertex 0.20317734777927399 2.0055587291717529 2.5726412899274671e-16
      vertex 1.3877787807814457e-16 1.6153737408547941e-32 2.7755575615628914e-16
      vertex 0.19532673060894012 3.3098328574664019e-17 1.966820240020752
    endloop
  endfacet
  facet normal -0.95522834309855087 0.077883340769757697 0.28543475221447517
    outer loop
      vertex 0.19532673060894012 3.3098328574664019e-17 1.966820240020752
      vertex 0.72363561391830444 6.8250791455758521e-17 3.7348446846008301
      vertex 0.3691670298576355 1.9496747255325317 2.016603946685791
    endloop
  endfacet
  facet normal -0.88895661845571972 0.030312064553007639 0.45698720906203288
    outer loop
      vertex 0.72363561391830444 6.8250791455758521e-17 3.7348446846008301
      vertex 1.5644099712371826 1.0615812973612413e-16 5.3703651428222656
      vertex 1.696926474571228 1.6524076461791992 5.5185389518737793
    endloop
  endfacet
  facet normal -0.78565812513638034 0.0075345354107339488 0.61861501855623602
    outer loop
      vertex 1.5644099712371826 1.0615812973612413e-16 5.3703651428222656
      vertex 2.8006112575531006 1.491158357900445e-16 6.9403748512268066
      vertex 1.696926474571228 1.6524076461791992 5.5185389518737793
    endloop
  endfacet
  facet normal -0.6468558116795986 -0.043599025329447726 0.76136501356882036
    outer loop
      vertex 2.8006112575531006 1.491158357900445e-16 6.9403748512268066
      vertex 4.3139443397521973 1.9196410915764655e-16 8.2261028289794922
      vertex 2.9202620983123779 1.3977646827697754 7.1220722198486328
    endloop
  endfacet
  facet normal -0.48223173093655819 -0.12477606164662093 0.86711215659676322
    outer loop
      vertex 4.3139443397521973 1.9196410915764655e-16 8.2261028289794922
      vertex 6.0114006996154785 2.3239997975190916e-16 9.1701183319091797
      vertex 6.1032161712646484 0.75850611925125122 9.3303279876708984
    endloop
  endfacet
  facet normal -0.2958686496029142 -0.18972178198028236 0.93619836980437754
    outer loop
      vertex 6.0114006996154785 2.3239997975190916e-16 9.1701183319091797
      vertex 7.994441032409668 2.7235018283003982e-16 9.7968225479125977
      vertex 8.0522012710571289 0.37645643949508667 9.8913660049438477
    endloop
  endfacet
  facet normal -0.098131521939975055 -0.22821166849196328 0.96865351842950465
    outer loop
      vertex 7.994441032409668 2.7235018283003982e-16 9.7968225479125977
      vertex 10 3.0616169991140216e-16 10
      vertex 8.0522012710571289 0.37645643949508667 9.8913660049438477
    endloop
  endfacet
  facet normal -0.30214929806768798 -0.16184745182599383 0.93942067467915358
    outer loop
      vertex 8.0522012710571289 0.37645643949508667 9.8913660049438477
      vertex 6.1032161712646484 0.75850611925125122 9.3303279876708984
      vertex 6.0114006996154785 2.3239997975190916e-16 9.1701183319091797
    endloop
  endfacet
  facet normal -0.4917134309180628 -0.099424953002557104 0.86506218306849292
    outer loop
      vertex 6.1032161712646484 0.75850611925125122 9.3303279876708984
      vertex 4.4224853515625 1.0931065082550049 8.4134340286254883
      vertex 4.3139443397521973 1.9196410915764655e-16 8.2261028289794922
    endloop
  endfacet
  facet normal -0.65792173785339658 -0.063274917111903944 0.75042339497409605
    outer loop
      vertex 4.4224853515625 1.0931065082550049 8.4134340286254883
      vertex 2.9202620983123779 1.3977646827697754 7.1220722198486328
      vertex 4.3139443397521973 1.9196410915764655e-16 8.2261028289794922
    endloop
  endfacet
  facet normal -0.79581509173095022 -0.010579915509430795 0.60544727694579048
    outer loop
      vertex 2.9202620983123779 1.3977646827697754 7.1220722198486328
      vertex 1.696926474571228 1.6524076461791992 5.5185389518737793
      vertex 2.8006112575531006 1.491158357900445e-16 6.9403748512268066
    endloop
  endfacet
  facet normal -0.89507970608106635 0.04876739500229637 0.4432313853356078
    outer loop
      vertex 1.696926474571228 1.6524076461791992 5.5185389518737793
      vertex 0.87368673086166382 1.8309193849563599 3.8364136219024658
      vertex 0.72363561391830444 6.8250791455758521e-17 3.7348446846008301
    endloop
  endfacet
  facet normal -0.95645097472485119 0.28117257436583776 0.078380586705953728
    outer loop
      vertex 0.3691670298576355 1.9496747255325317 2.016603946685791
      vertex 0.88489425182342529 3.6943943500518799 2.0510575771331787
      vertex 0.74206250905990601 3.7802901268005371 2.322603516645102e-16
    endloop
  endfacet
  facet normal -0.96061529355270969 0.063721722923414353 0.27047698574982848
    outer loop
      vertex 0.87368673086166382 1.8309193849563599 3.8364136219024658
      vertex 0.3691670298576355 1.9496747255325317 2.016603946685791
      vertex 0.72363561391830444 6.8250791455758521e-17 3.7348446846008301
    endloop
  endfacet
  facet normal -0.88409476608751736 0.46026191994469129 0.080841880393052082
    outer loop
      vertex 0.88489425182342529 3.6943943500518799 2.0510575771331787
      vertex 1.7725452184677124 5.3954348564147949 2.0738601684570313
      vertex 0.74206250905990601 3.7802901268005371 2.322603516645102e-16
    endloop
  endfacet
  facet normal -0.77543443025701286 0.62660072883348306 0.077929269195404133
    outer loop
      vertex 1.7725452184677124 5.3954348564147949 2.0738601684570313
      vertex 3.0066709518432617 6.9216785430908203 2.0820493698120117
      vertex 1.6471688747406006 5.4982008934020996 2.0053097391639694e-16
    endloop
  endfacet
  facet normal -0.63599127597374705 0.76789547837914474 0.076495955253528272
    outer loop
      vertex 3.0066709518432617 6.9216785430908203 2.0820493698120117
      vertex 4.492523193359375 8.1530113220214844 2.0749142169952393
      vertex 2.8929452896118164 7.0348968505859375 1.6358873041775411e-16
    endloop
  endfacet
  facet normal -0.47115360933474271 0.87835830270133664 0.080628583557394273
    outer loop
      vertex 4.492523193359375 8.1530113220214844 2.0749142169952393
      vertex 6.2082881927490234 9.0753936767578125 2.0526723861694336
      vertex 6.1211543083190918 9.2170791625976563 8.2491519646581645e-17
    endloop
  endfacet
  facet normal -0.060764112408739364 0.044889769934967745 0.99714223218072751
    outer loop
      vertex 9.6309118270874023 1.9496747255325317 9.8897371292114258
      vertex 10 3.0616169991140216e-16 10
      vertex 10 0.89854437112808228 9.9595489501953125
    endloop
  endfacet
  facet normal 0.081318794219749954 0.29042464707383953 0.95343629995856649
    outer loop
      vertex 9.256378173828125 3.9001319408416748 9.3275556564331055
      vertex 9.6309118270874023 1.9496747255325317 9.8897371292114258
      vertex 10 2.751582145690918 9.6139898300170898
    endloop
  endfacet
  facet normal 0.066173356780883777 0.48773326211971291 0.87048110368600951
    outer loop
      vertex 8.9283657073974609 5.5819110870361328 8.4101848602294922
      vertex 9.256378173828125 3.9001319408416748 9.3275556564331055
      vertex 10 4.5929460525512695 8.8828401565551758
    endloop
  endfacet
  facet normal 0.01694222467505372 0.65347733896244531 0.75675645255631707
    outer loop
      vertex 8.6296796798706055 7.0849995613098145 7.1189188957214355
      vertex 8.9283657073974609 5.5819110870361328 8.4101848602294922
      vertex 10 6.3029813766479492 7.7635316848754883
    endloop
  endfacet
  facet normal -0.029329091324695512 0.7922097823736457 0.60954365316486447
    outer loop
      vertex 8.379969596862793 8.3090991973876953 5.5159697532653809
      vertex 8.6296796798706055 7.0849995613098145 7.1189188957214355
      vertex 10 7.7635316848754883 6.3029813766479492
    endloop
  endfacet
  facet normal -0.063224446085852662 0.8935639095234178 0.44446170702813359
    outer loop
      vertex 8.2048377990722656 9.1329984664916992 3.8346567153930664
      vertex 8.379969596862793 8.3090991973876953 5.5159697532653809
      vertex 10 8.8828401565551758 4.5929460525512695
    endloop
  endfacet
  facet normal -0.28412737912374619 0.95486318334056985 0.086648332545896586
    outer loop
      vertex 6.2082881927490234 9.0753936767578125 2.0526723861694336
      vertex 8.0882244110107422 9.6381349563598633 2.0157463550567627
      vertex 8.0331792831420898 9.8046731948852539 4.0189013429697178e-17
    endloop
  endfacet
  facet normal -0.092572654158986481 0.9578502946387607 0.27194322341694832
    outer loop
      vertex 8.0882244110107422 9.6381349563598633 2.0157463550567627
      vertex 8.2048377990722656 9.1329984664916992 3.8346567153930664
      vertex 10 9.6139898300170898 2.751582145690918
    endloop
  endfacet
  facet normal -0.11672466370202469 0.98952535494260596 0.084940713496880149
    outer loop
      vertex 8.0882244110107422 9.6381349563598633 2.0157463550567627
      vertex 10 9.9595489501953125 0.89854437112808228
      vertex 8.0331792831420898 9.8046731948852539 4.0189013429697178e-17
    endloop
  endfacet
  facet normal -0.99270708097959082 0.086365923818880475 0.084104569292587042
    outer loop
      vertex 0.3691670298576355 1.9496747255325317 2.016603946685791
      vertex 0.20317734777927399 2.0055587291717529 2.5726412899274671e-16
      vertex 0.19532673060894012 3.3098328574664019e-17 1.966820240020752
    endloop
  endfacet
  facet normal -0.36514527755420667 0.50549751818454736 0.78175519530676907
    outer loop
      vertex 12.279635429382324 4.0836472511291504 9.5006742477416992
      vertex 14.478592872619629 6.1255588531494141 9.2074337005615234
      vertex 14.200414657592773 6.6361474990844727 8.747344970703125
    endloop
  endfacet
  facet normal -0.17873953201049228 0.39982675941237589 0.89899429483977711
    outer loop
      vertex 12.279635429382324 4.0836472511291504 9.5006742477416992
      vertex 14.200414657592773 6.6361474990844727 8.747344970703125
      vertex 12.152959823608398 4.8274822235107422 9.1446685791015625
    endloop
  endfacet
  facet normal -0.35520494646472217 0.56559901039761462 0.74426286044933943
    outer loop
      vertex 12.152959823608398 4.8274822235107422 9.1446685791015625
      vertex 14.200414657592773 6.6361474990844727 8.747344970703125
      vertex 13.904782295227051 7.1238384246826172 8.2356338500976563
    endloop
  endfacet
  facet normal -0.18212634044051915 0.4788925761929636 0.85877348386231089
    outer loop
      vertex 12.152959823608398 4.8274822235107422 9.1446685791015625
      vertex 13.904782295227051 7.1238384246826172 8.2356338500976563
      vertex 12.013039588928223 5.5517425537109375 8.7111129760742187
    endloop
  endfacet
  facet normal -0.37349645881116089 0.44239525617337938 0.81534460970243305
    outer loop
      vertex 12.397634506225586 3.2922489643096924 9.7914962768554687
      vertex 14.750268936157227 5.5701308250427246 9.6332521438598633
      vertex 14.478592872619629 6.1255588531494141 9.2074337005615234
    endloop
  endfacet
  facet normal -0.17033940753181981 0.31740977475514887 0.93286414934415507
    outer loop
      vertex 12.397634506225586 3.2922489643096924 9.7914962768554687
      vertex 14.478592872619629 6.1255588531494141 9.2074337005615234
      vertex 12.279635429382324 4.0836472511291504 9.5006742477416992
    endloop
  endfacet
  facet normal 1 -0 0
    outer loop
      vertex 10 9.9595489501953125 0.89854437112808228
      vertex 10 9.8330535888671875 1.81963050365448
      vertex 10 10 0
    endloop
  endfacet
  facet normal 1 0 0
    outer loop
      vertex 10 9.8330535888671875 1.81963050365448
      vertex 10 9.6139898300170898 2.751582145690918
      vertex 10 10 0
    endloop
  endfacet
  facet normal 1 -0 0
    outer loop
      vertex 10 9.6139898300170898 2.751582145690918
      vertex 10 9.2978830337524414 3.6809470653533936
      vertex 10 10 0
    endloop
  endfacet
  facet normal 1 -0 0
    outer loop
      vertex 10 9.2978830337524414 3.6809470653533936
      vertex 10 8.8828401565551758 4.5929460525512695
      vertex 10 10 0
    endloop
  endfacet
  facet normal -0.14434157593034538 0.85471353391090599 0.49862840312949985
    outer loop
      vertex 10 8.8828401565551758 4.5929460525512695
      vertex 10 8.3699550628662109 5.4720973968505859
      vertex 13.769041061401367 10 3.7690412998199463
    endloop
  endfacet
  facet normal -0.082667759316012418 0.80497866018679742 0.58751629612593581
    outer loop
      vertex 10 8.3699550628662109 5.4720973968505859
      vertex 10 7.7635316848754883 6.3029813766479492
      vertex 13.769041061401367 10 3.7690412998199463
    endloop
  endfacet
  facet normal -0.20527260079180659 0.72690716553956536 0.65533894440312535
    outer loop
      vertex 10 7.7635316848754883 6.3029813766479492
      vertex 10 7.0710678100585937 7.0710678100585937
      vertex 13.904782295227051 7.1238384246826172 8.2356338500976563
    endloop
  endfacet
  facet normal -0.22466573077740173 0.65248046688688022 0.72373651956035401
    outer loop
      vertex 10 7.0710678100585937 7.0710678100585937
      vertex 10 6.3029813766479492 7.7635316848754883
      vertex 13.904782295227051 7.1238384246826172 8.2356338500976563
    endloop
  endfacet
  facet normal -0.15819867178631175 0.58211034981340481 0.79757176535103236
    outer loop
      vertex 10 6.3029813766479492 7.7635316848754883
      vertex 10 5.4720973968505859 8.3699550628662109
      vertex 12.013039588928223 5.5517425537109375 8.7111129760742187
    endloop
  endfacet
  facet normal -0.16406770736688372 0.49707695793470719 0.85205415631270298
    outer loop
      vertex 10 5.4720973968505859 8.3699550628662109
      vertex 10 4.5929460525512695 8.8828401565551758
      vertex 12.013039588928223 5.5517425537109375 8.7111129760742187
    endloop
  endfacet
  facet normal -0.11879529138239563 0.41128155701414315 0.90373400932209802
    outer loop
      vertex 10 4.5929460525512695 8.8828401565551758
      vertex 10 3.6809470653533936 9.2978830337524414
      vertex 12.013039588928223 5.5517425537109375 8.7111129760742187
    endloop
  endfacet
  facet normal -0.10355179146873814 0.32028366251211354 0.94164505096742346
    outer loop
      vertex 10 3.6809470653533936 9.2978830337524414
      vertex 10 2.751582145690918 9.6139898300170898
      vertex 12.152959823608398 4.8274822235107422 9.1446685791015625
    endloop
  endfacet
  facet normal -0.085010701536701705 0.22799426268768466 0.96994422355398191
    outer loop
      vertex 10 2.751582145690918 9.6139898300170898
      vertex 10 1.81963050365448 9.8330535888671875
      vertex 12.279635429382324 4.0836472511291504 9.5006742477416992
    endloop
  endfacet
  facet normal -0.066247666824401377 0.13575690610177235 0.98852481460305175
    outer loop
      vertex 10 1.81963050365448 9.8330535888671875
      vertex 10 0.89854437112808228 9.9595489501953125
      vertex 12.397634506225586 3.2922489643096924 9.7914962768554687
    endloop
  endfacet
  facet normal 0.025113031539454132 0.044958689245259212 0.99867314568293397
    outer loop
      vertex 10 0.89854437112808228 9.9595489501953125
      vertex 10 3.0616169991140216e-16 10
      vertex 12.397634506225586 3.2922489643096924 9.7914962768554687
    endloop
  endfacet
  facet normal -0.22135168058137772 0.22135168058137772 0.94974042085593025
    outer loop
      vertex 10 3.0616169991140216e-16 10
      vertex 15 5 10
      vertex 12.397634506225586 3.2922489643096924 9.7914962768554687
    endloop
  endfacet
  facet normal -0.37803402779024575 0.37803402779024575 0.84509203502658059
    outer loop
      vertex 15 5 10
      vertex 20 10 10
      vertex 14.750268936157227 5.5701308250427246 9.6332521438598633
    endloop
  endfacet
  facet normal -0.55770849330443806 0.61475435157194269 0.55770809902623242
    outer loop
      vertex 20 10 10
      vertex 18.651023864746094 10 8.6510229110717773
      vertex 14.750268936157227 5.5701308250427246 9.6332521438598633
    endloop
  endfacet
  facet normal -0.51116937560913478 0.69094946069952057 0.51116994453743947
    outer loop
      vertex 18.651023864746094 10 8.6510229110717773
      vertex 17.365739822387695 10 7.3657402992248535
      vertex 14.200414657592773 6.6361474990844727 8.747344970703125
    endloop
  endfacet
  facet normal -0.48408374803320098 0.72892101751853533 0.48408374803320098
    outer loop
      vertex 17.365739822387695 10 7.3657402992248535
      vertex 16.148231506347656 10 6.1482319831848145
      vertex 13.904782295227051 7.1238384246826172 8.2356338500976563
    endloop
  endfacet
  facet normal -0.48408394006440214 0.72892102249680557 0.48408354850576746
    outer loop
      vertex 16.148231506347656 10 6.1482319831848145
      vertex 14.969204902648926 10 4.9692044258117676
      vertex 13.904782295227051 7.1238384246826172 8.2356338500976563
    endloop
  endfacet
  facet normal -0.31713807050528964 0.8937822825453785 0.31713825950861724
    outer loop
      vertex 14.969204902648926 10 4.9692044258117676
      vertex 13.769041061401367 10 3.7690412998199463
      vertex 10 7.7635316848754883 6.3029813766479492
    endloop
  endfacet
  facet normal -0.23000639885674429 0.94561838706826151 0.23000635322393126
    outer loop
      vertex 13.769041061401367 10 3.7690412998199463
      vertex 12.567322731018066 10 2.5673227310180664
      vertex 10 8.8828401565551758 4.5929460525512695
    endloop
  endfacet
  facet normal 0 0 0
    outer loop
      vertex 12.567322731018066 10 2.5673227310180664
      vertex 11.375 10 1.375
      vertex 10 10 0
    endloop
  endfacet
  facet normal -0.36514526000246234 0.50549752889421684 0.78175519657983383
    outer loop
      vertex 14.200414657592773 6.6361474990844727 8.747344970703125
      vertex 14.478592872619629 6.1255588531494141 9.2074337005615234
      vertex 18.651023864746094 10 8.6510229110717773
    endloop
  endfacet
  facet normal -0.18782003688457524 0.39782012878800554 0.89803272706275661
    outer loop
      vertex 12.279635429382324 4.0836472511291504 9.5006742477416992
      vertex 12.152959823608398 4.8274822235107422 9.1446685791015625
      vertex 10 2.751582145690918 9.6139898300170898
    endloop
  endfacet
  facet normal -0.30686235521268507 0.59413572251843916 0.74353092617645455
    outer loop
      vertex 13.904782295227051 7.1238384246826172 8.2356338500976563
      vertex 14.200414657592773 6.6361474990844727 8.747344970703125
      vertex 17.365739822387695 10 7.3657402992248535
    endloop
  endfacet
  facet normal -0.20720065824640127 0.50309270448266075 0.83902658951822273
    outer loop
      vertex 12.013039588928223 5.5517425537109375 8.7111129760742187
      vertex 13.904782295227051 7.1238384246826172 8.2356338500976563
      vertex 10 6.3029813766479492 7.7635316848754883
    endloop
  endfacet
  facet normal -0.19261927006117888 0.47634338920163216 0.85790138848529729
    outer loop
      vertex 12.152959823608398 4.8274822235107422 9.1446685791015625
      vertex 12.013039588928223 5.5517425537109375 8.7111129760742187
      vertex 10 3.6809470653533936 9.2978830337524414
    endloop
  endfacet
  facet normal -0.33265132802046582 0.40280456392328684 0.85269665019207808
    outer loop
      vertex 14.750268936157227 5.5701308250427246 9.6332521438598633
      vertex 12.397634506225586 3.2922489643096924 9.7914962768554687
      vertex 15 5 10
    endloop
  endfacet
  facet normal -0.32641651834694907 0.46934929155153354 0.82046541613301982
    outer loop
      vertex 14.478592872619629 6.1255588531494141 9.2074337005615234
      vertex 14.750268936157227 5.5701308250427246 9.6332521438598633
      vertex 18.651023864746094 10 8.6510229110717773
    endloop
  endfacet
  facet normal -0.1778999468571214 0.31594630414608887 0.9319493236247669
    outer loop
      vertex 12.397634506225586 3.2922489643096924 9.7914962768554687
      vertex 12.279635429382324 4.0836472511291504 9.5006742477416992
      vertex 10 1.81963050365448 9.8330535888671875
    endloop
  endfacet
  facet normal -0.23000637844661742 0.94561838589768477 0.23000637844661742
    outer loop
      vertex 10 10 0
      vertex 10 8.8828401565551758 4.5929460525512695
      vertex 12.567322731018066 10 2.5673227310180664
    endloop
  endfacet
  facet normal -0.1795480206988376 0.7666060806632734 0.61650435955735494
    outer loop
      vertex 10 7.7635316848754883 6.3029813766479492
      vertex 13.904782295227051 7.1238384246826172 8.2356338500976563
      vertex 14.969204902648926 10 4.9692044258117676
    endloop
  endfacet
  facet normal -0 0 -1
    outer loop
      vertex 15 7.5 0
      vertex 15 5 0
      vertex 10 5 0
    endloop
  endfacet
  facet normal 0 -0 -1
    outer loop
      vertex 15 7.5 0
      vertex 10 5 0
      vertex 10 7.5 0
    endloop
  endfacet
  facet normal -0 0 -1
    outer loop
      vertex 10 7.5 0
      vertex 10 5 0
      vertex 5 5 0
    endloop
  endfacet
  facet normal 0 -0 -1
    outer loop
      vertex 10 7.5 0
      vertex 5 5 0
      vertex 5 7.5 0
    endloop
  endfacet
  facet normal -0 0 -1
    outer loop
      vertex 10 5 0
      vertex 10 2.5 0
      vertex 5 2.5 0
    endloop
  endfacet
  facet normal 0 -0 -1
    outer loop
      vertex 10 5 0
      vertex 5 2.5 0
      vertex 5 5 0
    endloop
  endfacet
  facet normal -2.0433491006694826e-17 -0 -1
    outer loop
      vertex 10 10 0
      vertex 10 7.5 0
      vertex 8.0331792831420898 9.8046731948852539 4.0189013429697178e-17
    endloop
  endfacet
  facet normal -2.1773116706200391e-17 -1.1432439030706028e-18 -1
    outer loop
      vertex 8.0331792831420898 9.8046731948852539 4.0189013429697178e-17
      vertex 10 7.5 0
      vertex 6.1211543083190918 9.2170791625976563 8.2491519646581645e-17
    endloop
  endfacet
  facet normal -7.7571262254901351e-17 9.8691358102003999e-17 -1
    outer loop
      vertex 6.1211543083190918 9.2170791625976563 8.2491519646581645e-17
      vertex 5 7.5 0
      vertex 4.3889217376708984 8.2774267196655273 1.2412741093397698e-16
    endloop
  endfacet
  facet normal -9.619246495990017e-17 8.405459311360195e-17 -1
    outer loop
      vertex 4.3889217376708984 8.2774267196655273 1.2412741093397698e-16
      vertex 5 7.5 0
      vertex 2.8929452896118164 7.0348968505859375 1.6358873041775411e-16
    endloop
  endfacet
  facet normal -5.6567437082412714e-17 2.1818327374129553e-17 -1
    outer loop
      vertex 2.8929452896118164 7.0348968505859375 1.6358873041775411e-16
      vertex 5 5 0
      vertex 1.6471688747406006 5.4982008934020996 2.0053097391639694e-16
    endloop
  endfacet
  facet normal -5.1882043243588098e-17 8.8650645611277949e-18 -1
    outer loop
      vertex 1.6471688747406006 5.4982008934020996 2.0053097391639694e-16
      vertex 5 2.5 0
      vertex 0.74206250905990601 3.7802901268005371 2.322603516645102e-16
    endloop
  endfacet
  facet normal -5.3865895880781061e-17 2.2672471261736055e-18 -1
    outer loop
      vertex 0.74206250905990601 3.7802901268005371 2.322603516645102e-16
      vertex 5 2.5 0
      vertex 0.20317734777927399 2.0055587291717529 2.5726412899274671e-16
    endloop
  endfacet
  facet normal -5.314424985610311e-17 -4.7338027503094353e-18 -1
    outer loop
      vertex 0.20317734777927399 2.0055587291717529 2.5726412899274671e-16
      vertex 5 2.5 0
      vertex 1.3877787807814457e-16 1.6153737408547941e-32 2.7755575615628914e-16
    endloop
  endfacet
  facet normal 0 -0 -1
    outer loop
      vertex 20 10 0
      vertex 15 7.5 0
      vertex 15 10 0
    endloop
  endfacet
  facet normal 0 0 -1
    outer loop
      vertex 15 10 0
      vertex 15 7.5 0
      vertex 10 10 0
    endloop
  endfacet
  facet normal -0 -0 -1
    outer loop
      vertex 20 0 0
      vertex 15 5 0
      vertex 20 5 0
    endloop
  endfacet
  facet normal -0 -0 -1
    outer loop
      vertex 20 5 0
      vertex 15 7.5 0
      vertex 20 10 0
    endloop
  endfacet
  facet normal -2.3129646456648177e-17 -6.4763009549219306e-17 -1
    outer loop
      vertex 1.3877787807814457e-16 1.6153737408547941e-32 2.7755575615628914e-16
      vertex 5 2.5 0
      vertex 10 2.6922896293149876e-33 4.6259291589807372e-17
    endloop
  endfacet
  facet normal -4.6259291589807374e-18 -4.6259291589807374e-18 -1
    outer loop
      vertex 10 2.6922896293149876e-33 4.6259291589807372e-17
      vertex 15 5 0
      vertex 20 0 0
    endloop
  endfacet
  facet normal 0 -0 -1
    outer loop
      vertex 10 7.5 0
      vertex 10 10 0
      vertex 15 7.5 0
    endloop
  endfacet
  facet normal 0 -0 -1
    outer loop
      vertex 15 5 0
      vertex 10 2.5 0
      vertex 10 5 0
    endloop
  endfacet
  facet normal 0 0 -1
    outer loop
      vertex 15 7.5 0
      vertex 20 5 0
      vertex 15 5 0
    endloop
  endfacet
  facet normal -0 4.8041768512166698e-17 -1
    outer loop
      vertex 5 7.5 0
      vertex 6.1211543083190918 9.2170791625976563 8.2491519646581645e-17
      vertex 10 7.5 0
    endloop
  endfacet
  facet normal -7.763857749456163e-17 -0 -1
    outer loop
      vertex 5 5 0
      vertex 2.8929452896118164 7.0348968505859375 1.6358873041775411e-16
      vertex 5 7.5 0
    endloop
  endfacet
  facet normal -5.9809446531811948e-17 -0 -1
    outer loop
      vertex 5 2.5 0
      vertex 1.6471688747406006 5.4982008934020996 2.0053097391639694e-16
      vertex 5 5 0
    endloop
  endfacet
  facet normal 0 -1.850371663592295e-17 -1
    outer loop
      vertex 10 2.5 0
      vertex 10 2.6922896293149876e-33 4.6259291589807372e-17
      vertex 5 2.5 0
    endloop
  endfacet
  facet normal 9.2518583179614748e-18 -1.850371663592295e-17 -1
    outer loop
      vertex 10 2.6922896293149876e-33 4.6259291589807372e-17
      vertex 10 2.5 0
      vertex 15 5 0
    endloop
  endfacet
  facet normal -0 -1 0
    outer loop
      vertex 15 0 7.5
      vertex 10 0 7.5
      vertex 10 0 5
    endloop
  endfacet
  facet normal -0 -1 0
    outer loop
      vertex 15 0 7.5
      vertex 10 0 5
      vertex 15 0 5
    endloop
  endfacet
  facet normal -0 -1 0
    outer loop
      vertex 10 0 7.5
      vertex 5 0 7.5
      vertex 5 0 5
    endloop
  endfacet
  facet normal -0 -1 0
    outer loop
      vertex 10 0 7.5
      vertex 5 0 5
      vertex 10 0 5
    endloop
  endfacet
  facet normal -0 -1 0
    outer loop
      vertex 10 0 5
      vertex 5 0 5
      vertex 5 0 2.5
    endloop
  endfacet
  facet normal -0 -1 0
    outer loop
      vertex 10 0 5
      vertex 5 0 2.5
      vertex 10 0 2.5
    endloop
  endfacet
  facet normal 4.4523524761739636e-18 -1 1.2246467996456086e-16
    outer loop
      vertex 10 3.0616169991140216e-16 10
      vertex 7.994441032409668 2.7235018283003982e-16 9.7968225479125977
      vertex 10 0 7.5
    endloop
  endfacet
  facet normal -1.3580545415266572e-17 -1 1.0671856143629761e-16
    outer loop
      vertex 7.994441032409668 2.7235018283003982e-16 9.7968225479125977
      vertex 6.0114006996154785 2.3239997975190916e-16 9.1701183319091797
      vertex 10 0 7.5
    endloop
  endfacet
  facet normal -8.0767211274118067e-17 -1 1.8806331727494823e-16
    outer loop
      vertex 6.0114006996154785 2.3239997975190916e-16 9.1701183319091797
      vertex 4.3139443397521973 1.9196410915764655e-16 8.2261028289794922
      vertex 5 0 7.5
    endloop
  endfacet
  facet normal -1.0888969093973897e-16 -1 1.6149189297417901e-16
    outer loop
      vertex 4.3139443397521973 1.9196410915764655e-16 8.2261028289794922
      vertex 2.8006112575531006 1.491158357900445e-16 6.9403748512268066
      vertex 5 0 7.5
    endloop
  endfacet
  facet normal -2.5763081812554558e-17 -1 4.764687793305507e-17
    outer loop
      vertex 2.8006112575531006 1.491158357900445e-16 6.9403748512268066
      vertex 1.5644099712371826 1.0615812973612413e-16 5.3703651428222656
      vertex 5 0 5
    endloop
  endfacet
  facet normal -8.0693988699947861e-18 -1 2.732578593228716e-17
    outer loop
      vertex 1.5644099712371826 1.0615812973612413e-16 5.3703651428222656
      vertex 0.72363561391830444 6.8250791455758521e-17 3.7348446846008301
      vertex 5 0 2.5
    endloop
  endfacet
  facet normal -9.4070779127560081e-18 -1 2.269329806574944e-17
    outer loop
      vertex 0.72363561391830444 6.8250791455758521e-17 3.7348446846008301
      vertex 0.19532673060894012 3.3098328574664019e-17 1.966820240020752
      vertex 5 0 2.5
    endloop
  endfacet
  facet normal -8.8538123852466866e-18 -1 1.770762477049337e-17
    outer loop
      vertex 0.19532673060894012 3.3098328574664019e-17 1.966820240020752
      vertex 1.3877787807814457e-16 1.6153737408547941e-32 2.7755575615628914e-16
      vertex 5 0 2.5
    endloop
  endfacet
  facet normal -1.3461447779232955e-33 -1 -3.7692054075725862e-33
    outer loop
      vertex 1.3877787807814457e-16 1.6153737408547941e-32 2.7755575615628914e-16
      vertex 10 2.6922896293149876e-33 4.6259291589807372e-17
      vertex 5 0 2.5
    endloop
  endfacet
  facet normal -2.6922896293149874e-34 -1 -2.6922896293149874e-34
    outer loop
      vertex 10 2.6922896293149876e-33 4.6259291589807372e-17
      vertex 20 0 0
      vertex 15 0 5
    endloop
  endfacet
  facet normal -3.0616169991140215e-17 -1 6.123233998228043e-17
    outer loop
      vertex 20 0 10
      vertex 15 1.5308084995570108e-16 10
      vertex 15 0 7.5
    endloop
  endfacet
  facet normal -3.0616169991140215e-17 -1 6.123233998228043e-17
    outer loop
      vertex 15 1.5308084995570108e-16 10
      vertex 10 3.0616169991140216e-16 10
      vertex 15 0 7.5
    endloop
  endfacet
  facet normal 0 -1 0
    outer loop
      vertex 20 0 0
      vertex 20 0 5
      vertex 15 0 5
    endloop
  endfacet
  facet normal 0 -1 0
    outer loop
      vertex 20 0 5
      vertex 20 0 10
      vertex 15 0 7.5
    endloop
  endfacet
  facet normal 0 -1 1.2246467996456086e-16
    outer loop
      vertex 10 0 7.5
      vertex 15 0 7.5
      vertex 10 3.0616169991140216e-16 10
    endloop
  endfacet
  facet normal -0 -1 0
    outer loop
      vertex 15 0 5
      vertex 10 0 5
      vertex 10 0 2.5
    endloop
  endfacet
  facet normal 0 -1 0
    outer loop
      vertex 15 0 7.5
      vertex 15 0 5
      vertex 20 0 5
    endloop
  endfacet
  facet normal 0 -1 1.3915180458275872e-16
    outer loop
      vertex 5 0 7.5
      vertex 10 0 7.5
      vertex 6.0114006996154785 2.3239997975190916e-16 9.1701183319091797
    endloop
  endfacet
  facet normal -6.7798762861788474e-17 -1 0
    outer loop
      vertex 5 0 5
      vertex 5 0 7.5
      vertex 2.8006112575531006 1.491158357900445e-16 6.9403748512268066
    endloop
  endfacet
  facet normal -3.0899533660118493e-17 -1 0
    outer loop
      vertex 5 0 2.5
      vertex 5 0 5
      vertex 1.5644099712371826 1.0615812973612413e-16 5.3703651428222656
    endloop
  endfacet
  facet normal -0 -1 -1.076915851725995e-33
    outer loop
      vertex 10 0 2.5
      vertex 5 0 2.5
      vertex 10 2.6922896293149876e-33 4.6259291589807372e-17
    endloop
  endfacet
  facet normal 5.3845792586299748e-34 -1 -1.076915851725995e-33
    outer loop
      vertex 10 2.6922896293149876e-33 4.6259291589807372e-17
      vertex 15 0 5
      vertex 10 0 2.5
    endloop
  endfacet
  facet normal 1 0 0
    outer loop
      vertex 20 10 0
      vertex 20 10 5
      vertex 20 5 0
    endloop
  endfacet
  facet normal 1 0 -0
    outer loop
      vertex 20 5 0
      vertex 20 0 5
      vertex 20 0 0
    endloop
  endfacet
  facet normal 1 -0 0
    outer loop
      vertex 20 0 5
      vertex 20 5 10
      vertex 20 0 10
    endloop
  endfacet
  facet normal 1 0 -0
    outer loop
      vertex 20 10 10
      vertex 20 5 10
      vertex 20 10 5
    endloop
  endfacet
  facet normal 1 -0 0
    outer loop
      vertex 20 10 5
      vertex 20 5 10
      vertex 20 5 0
    endloop
  endfacet
  facet normal 1 -0 -0
    outer loop
      vertex 20 5 0
      vertex 20 5 10
      vertex 20 0 5
    endloop
  endfacet
  facet normal 0 1 -0
    outer loop
      vertex 10 10 0
      vertex 11.375 10 1.375
      vertex 15 10 0
    endloop
  endfacet
  facet normal 0 1 0
    outer loop
      vertex 11.375 10 1.375
      vertex 12.567322731018066 10 2.5673227310180664
      vertex 15 10 0
    endloop
  endfacet
  facet normal 0 1 0
    outer loop
      vertex 12.567322731018066 10 2.5673227310180664
      vertex 13.769041061401367 10 3.7690412998199463
      vertex 15 10 0
    endloop
  endfacet
  facet normal 0 1 0
    outer loop
      vertex 13.769041061401367 10 3.7690412998199463
      vertex 14.969204902648926 10 4.9692044258117676
      vertex 15 10 0
    endloop
  endfacet
  facet normal 0 1 -0
    outer loop
      vertex 14.969204902648926 10 4.9692044258117676
      vertex 16.148231506347656 10 6.1482319831848145
      vertex 20 10 5
    endloop
  endfacet
  facet normal 0 1 -0
    outer loop
      vertex 16.148231506347656 10 6.1482319831848145
      vertex 17.365739822387695 10 7.3657402992248535
      vertex 20 10 5
    endloop
  endfacet
  facet normal 0 1 0
    outer loop
      vertex 17.365739822387695 10 7.3657402992248535
      vertex 18.651023864746094 10 8.6510229110717773
      vertex 20 10 5
    endloop
  endfacet
  facet normal 0 1 0
    outer loop
      vertex 18.651023864746094 10 8.6510229110717773
      vertex 20 10 10
      vertex 20 10 5
    endloop
  endfacet
  facet normal -0 1 0
    outer loop
      vertex 20 10 0
      vertex 15 10 0
      vertex 20 10 5
    endloop
  endfacet
  facet normal -0 1 0
    outer loop
      vertex 15 10 0
      vertex 14.969204902648926 10 4.9692044258117676
      vertex 20 10 5
    endloop
  endfacet
  facet normal 0 -0 1
    outer loop
      vertex 20 10 10
      vertex 15 5 10
      vertex 20 5 10
    endloop
  endfacet
  facet normal 0 0 1
    outer loop
      vertex 15 5 10
      vertex 10 3.0616169991140216e-16 10
      vertex 15 1.5308084995570108e-16 10
    endloop
  endfacet
  facet normal 0 0 1
    outer loop
      vertex 15 1.5308084995570108e-16 10
      vertex 20 0 10
      vertex 15 5 10
    endloop
  endfacet
  facet normal 0 0 1
    outer loop
      vertex 20 0 10
      vertex 20 5 10
      vertex 15 5 10
    endloop
  endfacet
endsolid OBJECT
